<svg width="90" height="90" viewBox="0 0 90 90" fill="none" xmlns="http://www.w3.org/2000/svg">
<g clip-path="url(#clip0_64_30)">
<path d="M24.012 33.588C24.547 41.238 20.401 47.761 14.748 48.158C9.09698 48.555 4.08098 42.675 3.54598 35.023C3.01098 27.373 7.15698 20.849 12.81 20.452C18.462 20.056 23.478 25.937 24.012 33.588ZM62.938 1.874C57.447 0.473 51.464 5.363 49.576 12.795C47.681 20.227 50.599 27.387 56.09 28.788C61.58 30.188 67.566 25.3 69.455 17.867C71.914 8.194 64.253 2.208 62.938 1.874ZM75.812 26.925C70.037 27.011 65.453 32.504 65.58 41.013C65.707 49.521 70.484 53.4 76.265 53.314C82.037 53.228 86.623 49.211 86.498 40.7C86.33 29.626 77.195 26.905 75.812 26.925ZM33.965 0C28.469 0 24.014 6.16 24.014 13.756C24.014 21.352 28.469 27.509 33.965 27.509C39.461 27.509 43.917 21.352 43.917 13.756C43.917 6.16 39.461 0 33.965 0ZM32.693 42.72C29.518 47.28 25.918 51.731 18.931 57.563C11.943 63.395 8.97898 67.421 8.97898 73.358C8.97898 79.294 12.367 89.153 22.001 89.153C31.635 89.153 36.293 87.032 43.916 87.032C51.539 87.032 56.623 90.001 66.255 90.001C75.89 90.001 79.913 80.884 79.913 74.948C79.913 69.011 78.241 65.651 70.522 58.876C65.577 54.53 61.384 50.991 54.82 41.874C51.575 37.366 47.833 36.786 43.916 36.786C39.999 36.785 35.87 38.163 32.693 42.72Z" fill="#FFC164"/>
</g>
<defs>
<clipPath id="clip0_64_30">
<rect width="90" height="90" fill="white"/>
</clipPath>
</defs>
</svg>
